name rise44.8762peak52.3436fall86.788.mot
datacolumns 19
datarows 35
range 1.16166900000000 1.21833100000000
endheader
time	ground_force1_vx	ground_force1_vy	ground_force1_vz	ground_force1_px	ground_force1_py	ground_force1_pz	ground_force2_vx	ground_force2_vy	ground_force2_vz	ground_force2_px	ground_force2_py	ground_force2_pz	ground_torque1_x	ground_torque1_y	ground_torque1_z	ground_torque2_x	ground_torque2_y	ground_torque2_z	
1.16166900000000	-7.88518100000000	40.04521300000000	-9.55097500000000	0.30109000000000	0.00000000000000	0.09447000000000	-49.12002400000000	803.90123300000005	-51.84282100000000	0.09919000000000	0.00000000000000	-0.07944000000000	0.00000000000000	-5.81247300000000	0.00000000000000	0.00000000000000	-16.63416500000000	0.00000000000000	
1.16332700000000	-8.62934600000000	46.88314700000000	-10.71495100000000	0.30633100000000	0.00000000000000	0.09553000000000	-49.80669600000000	801.76408700000002	-51.50073700000000	0.09841200000000	0.00000000000000	-0.07931500000000	0.00000000000000	-6.60617900000000	0.00000000000000	0.00000000000000	-16.57969000000000	0.00000000000000	
1.16499200000000	-9.21936400000000	53.79470700000000	-11.76351300000000	0.31096800000000	0.00000000000000	0.09651300000000	-50.51315000000000	799.51773400000002	-51.14565100000000	0.09763000000000	0.00000000000000	-0.07918800000000	0.00000000000000	-7.34433100000000	0.00000000000000	0.00000000000000	-16.52866100000000	0.00000000000000	
1.16666400000000	-9.63373500000000	60.69033900000000	-12.67132600000000	0.31509900000000	0.00000000000000	0.09743000000000	-51.23906800000000	797.15943700000003	-50.77748100000000	0.09684300000000	0.00000000000000	-0.07906000000000	0.00000000000000	-8.00993500000000	0.00000000000000	0.00000000000000	-16.48108900000000	0.00000000000000	
1.16832500000000	-9.85985000000000	67.50284400000000	-13.42176800000000	0.31880100000000	0.00000000000000	0.09828900000000	-51.98401700000000	794.68636800000002	-50.39614300000000	0.09605300000000	0.00000000000000	-0.07893000000000	0.00000000000000	-8.59126900000000	0.00000000000000	0.00000000000000	-16.43696400000000	0.00000000000000	
1.16999000000000	-9.89384200000000	74.18939800000000	-14.00701200000000	0.32214100000000	0.00000000000000	0.09909700000000	-52.74744500000000	792.09561499999995	-50.00155300000000	0.09525800000000	0.00000000000000	-0.07879800000000	0.00000000000000	-9.08204000000000	0.00000000000000	0.00000000000000	-16.39625500000000	0.00000000000000	
1.17166500000000	-9.73974500000000	80.73121999999999	-14.42738400000000	0.32517200000000	0.00000000000000	0.09986000000000	-53.52868400000000	789.38418600000000	-49.59362500000000	0.09446000000000	0.00000000000000	-0.07866500000000	0.00000000000000	-9.48108100000000	0.00000000000000	0.00000000000000	-16.35890600000000	0.00000000000000	
1.17333000000000	-9.40815700000000	87.13132100000000	-14.69015700000000	0.32793600000000	0.00000000000000	0.10058400000000	-54.32694300000000	786.54901400000006	-49.17227500000000	0.09365900000000	0.00000000000000	-0.07853000000000	0.00000000000000	-9.79166600000000	0.00000000000000	0.00000000000000	-16.32484000000000	0.00000000000000	
1.17499000000000	-8.91459200000000	93.41083300000000	-14.80798800000000	0.33047300000000	0.00000000000000	0.10127100000000	-55.14131300000000	783.58696599999996	-48.73742400000000	0.09285600000000	0.00000000000000	-0.07839300000000	0.00000000000000	-10.02058000000000	0.00000000000000	0.00000000000000	-16.29395600000000	0.00000000000000	
1.17666300000000	-8.27771200000000	99.60448800000000	-14.79718500000000	0.33281100000000	0.00000000000000	0.10192600000000	-55.97075900000000	780.49484700000005	-48.28899600000000	0.09205100000000	0.00000000000000	-0.07825500000000	0.00000000000000	-10.17707000000000	0.00000000000000	0.00000000000000	-16.26613200000000	0.00000000000000	
1.17832600000000	-7.51762000000000	105.75575000000001	-14.67597600000000	0.33497800000000	0.00000000000000	0.10255100000000	-56.81412900000000	777.26941399999998	-47.82692200000000	0.09124500000000	0.00000000000000	-0.07811500000000	0.00000000000000	-10.27176300000000	0.00000000000000	0.00000000000000	-16.24122100000000	0.00000000000000	
1.17999100000000	-6.65431500000000	111.91208200000000	-14.46292200000000	0.33699600000000	0.00000000000000	0.10314900000000	-57.67014500000000	773.90737899999999	-47.35114200000000	0.09043900000000	0.00000000000000	-0.07797400000000	0.00000000000000	-10.31567200000000	0.00000000000000	0.00000000000000	-16.21905600000000	0.00000000000000	
1.18165800000000	-5.70643600000000	118.12067000000000	-14.17557900000000	0.33888400000000	0.00000000000000	0.10372200000000	-58.53741400000000	770.40542600000003	-46.86160500000000	0.08963300000000	0.00000000000000	-0.07783100000000	0.00000000000000	-10.31934000000000	0.00000000000000	0.00000000000000	-16.19944600000000	0.00000000000000	
1.18332300000000	-4.69031900000000	124.42489000000000	-13.82946400000000	0.34065700000000	0.00000000000000	0.10427200000000	-59.41442200000000	766.76021700000001	-46.35827200000000	0.08882900000000	0.00000000000000	-0.07768600000000	0.00000000000000	-10.29216100000000	0.00000000000000	0.00000000000000	-16.18217900000000	0.00000000000000	
1.18499500000000	-3.61939300000000	130.86165000000000	-13.43736000000000	0.34233000000000	0.00000000000000	0.10480000000000	-60.29953800000000	762.96840399999996	-45.84111800000000	0.08802700000000	0.00000000000000	-0.07753900000000	0.00000000000000	-10.24192100000000	0.00000000000000	0.00000000000000	-16.16702200000000	0.00000000000000	
1.18665700000000	-2.50391200000000	137.45964499999999	-13.00894800000000	0.34391400000000	0.00000000000000	0.10530900000000	-61.19102200000000	759.02664700000003	-45.31013200000000	0.08722800000000	0.00000000000000	-0.07739100000000	0.00000000000000	-10.17453000000000	0.00000000000000	0.00000000000000	-16.15372000000000	0.00000000000000	
1.18832900000000	-1.35096300000000	144.23851099999999	-12.55073700000000	0.34542000000000	0.00000000000000	0.10579900000000	-62.08702100000000	754.93162199999995	-44.76532300000000	0.08643300000000	0.00000000000000	-0.07724100000000	0.00000000000000	-10.09395100000000	0.00000000000000	0.00000000000000	-16.14200100000000	0.00000000000000	
1.18999100000000	-0.16472000000000	151.20877200000001	-12.06624700000000	0.34685400000000	0.00000000000000	0.10627100000000	-62.98557700000000	750.68004199999996	-44.20671500000000	0.08564400000000	0.00000000000000	-0.07708900000000	0.00000000000000	-10.00228300000000	0.00000000000000	0.00000000000000	-16.13157000000000	0.00000000000000	
1.19166400000000	1.05313600000000	158.37243100000001	-11.55637800000000	0.34822600000000	0.00000000000000	0.10672700000000	-63.88463300000000	746.26866700000005	-43.63435600000000	0.08486000000000	0.00000000000000	-0.07693500000000	0.00000000000000	-9.89997000000000	0.00000000000000	0.00000000000000	-16.12211700000000	0.00000000000000	
1.19332500000000	2.30288000000000	165.72405599999999	-11.01991600000000	0.34954100000000	0.00000000000000	0.10716800000000	-64.78203400000000	741.69432800000004	-43.04831300000000	0.08408400000000	0.00000000000000	-0.07677900000000	0.00000000000000	-9.78609800000000	0.00000000000000	0.00000000000000	-16.11331400000000	0.00000000000000	
1.19499300000000	3.58616100000000	173.25217900000001	-10.45409300000000	0.35080400000000	0.00000000000000	0.10759300000000	-65.67553700000001	736.95393799999999	-42.44868000000000	0.08331500000000	0.00000000000000	-0.07662100000000	0.00000000000000	-9.65873700000000	0.00000000000000	0.00000000000000	-16.10481500000000	0.00000000000000	
1.19665600000000	4.90542100000000	180.94085100000001	-9.85517300000000	0.35201900000000	0.00000000000000	0.10800500000000	-66.56281400000000	732.04451600000004	-41.83557100000000	0.08255600000000	0.00000000000000	-0.07646100000000	0.00000000000000	-9.51529700000000	0.00000000000000	0.00000000000000	-16.09626100000000	0.00000000000000	
1.19832700000000	6.26335900000000	188.77120600000001	-9.21900000000000	0.35319000000000	0.00000000000000	0.10840300000000	-67.44146100000000	726.96320600000001	-41.20913100000000	0.08180600000000	0.00000000000000	-0.07629900000000	0.00000000000000	-9.35286800000000	0.00000000000000	0.00000000000000	-16.08728000000000	0.00000000000000	
1.19999600000000	7.66247400000000	196.72292200000001	-8.54147200000000	0.35432000000000	0.00000000000000	0.10878800000000	-68.30900200000001	721.70729400000005	-40.56952900000000	0.08106800000000	0.00000000000000	-0.07613500000000	0.00000000000000	-9.16852200000000	0.00000000000000	0.00000000000000	-16.07748600000000	0.00000000000000	
1.20166100000000	9.10470100000000	204.77548999999999	-7.81894200000000	0.35541100000000	0.00000000000000	0.10916100000000	-69.16290300000000	716.27423099999999	-39.91696100000000	0.08034100000000	0.00000000000000	-0.07596900000000	0.00000000000000	-8.95956800000000	0.00000000000000	0.00000000000000	-16.06648300000000	0.00000000000000	
1.20332400000000	10.59115300000000	212.90923200000000	-7.04850100000000	0.35646400000000	0.00000000000000	0.10952300000000	-70.00057300000000	710.66165100000001	-39.25165400000000	0.07962700000000	0.00000000000000	-0.07580100000000	0.00000000000000	-8.72373500000000	0.00000000000000	0.00000000000000	-16.05386800000000	0.00000000000000	
1.20499200000000	12.12196900000000	221.10605799999999	-6.22816500000000	0.35748200000000	0.00000000000000	0.10987300000000	-70.81937600000001	704.86739100000000	-38.57386300000000	0.07892700000000	0.00000000000000	-0.07563100000000	0.00000000000000	-8.45930300000000	0.00000000000000	0.00000000000000	-16.03922700000000	0.00000000000000	
1.20666100000000	13.69625700000000	229.34993499999999	-5.35697100000000	0.35846400000000	0.00000000000000	0.11021200000000	-71.61663799999999	698.88951099999997	-37.88387500000000	0.07824200000000	0.00000000000000	-0.07545800000000	0.00000000000000	-8.16516300000000	0.00000000000000	0.00000000000000	-16.02214400000000	0.00000000000000	
1.20832500000000	15.31211200000000	237.62711800000000	-4.43497100000000	0.35941200000000	0.00000000000000	0.11054100000000	-72.38965899999999	692.72630900000001	-37.18200400000000	0.07757100000000	0.00000000000000	-0.07528300000000	0.00000000000000	-7.84083900000000	0.00000000000000	0.00000000000000	-16.00219600000000	0.00000000000000	
1.21000200000000	16.96671200000000	245.92615400000000	-3.46318100000000	0.36032500000000	0.00000000000000	0.11086000000000	-73.13571700000000	686.37633900000003	-36.46859800000000	0.07691700000000	0.00000000000000	-0.07510500000000	0.00000000000000	-7.48644600000000	0.00000000000000	0.00000000000000	-15.97896000000000	0.00000000000000	
1.21166300000000	18.65644400000000	254.23772299999999	-2.44345400000000	0.36120300000000	0.00000000000000	0.11116900000000	-73.85208100000000	679.83842000000004	-35.74403600000000	0.07627900000000	0.00000000000000	-0.07492500000000	0.00000000000000	-7.10263400000000	0.00000000000000	0.00000000000000	-15.95201300000000	0.00000000000000	
1.21332600000000	20.37707200000000	262.55434700000001	-1.37834300000000	0.36204600000000	0.00000000000000	0.11146900000000	-74.53601900000000	673.11165800000003	-35.00872800000000	0.07565900000000	0.00000000000000	-0.07474300000000	0.00000000000000	-6.69050000000000	0.00000000000000	0.00000000000000	-15.92093200000000	0.00000000000000	
1.21499200000000	22.12390200000000	270.87003099999998	-0.27092900000000	0.36285200000000	0.00000000000000	0.11176000000000	-75.18480700000001	666.19544499999995	-34.26311900000000	0.07505700000000	0.00000000000000	-0.07455800000000	0.00000000000000	-6.25149100000000	0.00000000000000	0.00000000000000	-15.88529700000000	0.00000000000000	
1.21666100000000	23.89195700000000	279.17987099999999	0.87533200000000	0.36362200000000	0.00000000000000	0.11204200000000	-75.79573900000000	659.08947599999999	-33.50768400000000	0.07447200000000	0.00000000000000	-0.07437100000000	0.00000000000000	-5.78730600000000	0.00000000000000	0.00000000000000	-15.84469700000000	0.00000000000000	
1.21833100000000	25.67612600000000	287.47966700000001	2.05677200000000	0.36435400000000	0.00000000000000	0.11231600000000	-76.36613500000000	651.79375500000003	-32.74293400000000	0.07390700000000	0.00000000000000	-0.07418100000000	0.00000000000000	-5.29980300000000	0.00000000000000	0.00000000000000	-15.79872400000000	0.00000000000000	
